Coordinates
version=1
nRows=16
nColumns=33
inDegrees=yes

Units are S.I. units (second, meters, Newtons, ...)
Angles are in degrees.

endheader
time	ground_thorax_rot_x	ground_thorax_rot_y	ground_thorax_rot_z	ground_thorax_tx	ground_thorax_ty	ground_thorax_tz	clav_prot_r	clav_elev_r	scapula_abduction_r	scapula_elevation_r	scapula_upward_rot_r	scapula_winging_r	shoulder_elv_r	plane_of_elev_r	axial_rot_r	elbow_flexion_r	pro_sup_r	wrist_flex_r	wrist_dev_r	clav_prot_l	clav_elev_l	scapula_abduction_l	scapula_elevation_l	scapula_upward_rot_l	scapula_winging_l	shoulder_elv_l	plane_of_elev_l	axial_rot_l	elbow_flexion_l	pro_sup_l	wrist_flex_l	wrist_dev_l
      8.95000000	    -40.78617943	    -15.78971593	     11.56817660	   -119.55300746	    789.17950102	      1.77426889	      8.15749459	    -45.00000000	     32.72287218	    -45.00000000	    -43.43064824	  -4410.89776615	   -834.29018735	    151.29098599	    -95.69688220	   2169.69647430	     19.89325226	     17.47825742	     10.28999409	     18.01577690	     40.13568791	    -39.69555304	    -45.00000000	    -45.00000000	    798.30359920	  -2092.30999926	     23.00790778	    -29.83513710	   1445.33772653	     23.52823594	     11.10043186	    -19.57695848
      8.96000000	    -40.90811025	    -15.86935396	     11.58132150	   -124.85049117	    789.45316000	      1.45162694	      8.18018876	    -45.00000000	     32.34082611	    -45.00000000	    -44.48862979	  -4411.10209008	   -834.07339822	    151.24975040	    -95.53986427	   2169.69494658	     20.11241935	     17.44470457	     10.30823938	     17.75805418	     40.02527784	    -39.31849972	    -45.00000000	    -45.00000000	    798.58582274	  -2092.27944962	     22.77339219	    -30.78393844	   1445.41147441	     23.55765254	     11.14508028	    -19.59993816
      8.97000000	    -40.97789543	    -15.78194910	     11.46932059	   -130.19946032	    789.84036499	      1.12079692	      8.22626386	    -45.00000000	     32.17561244	    -45.00000000	    -45.00000000	  -4411.42147699	   -833.90230317	    151.35261653	    -95.17969561	   2169.72096483	     20.34362659	     17.43496806	     10.32276906	     17.59454022	     39.97219531	    -39.07950640	    -45.00000000	    -45.00000000	    798.81425460	  -2092.32042264	     22.52419499	    -31.90489801	   1445.46187640	     23.60574651	     11.15027310	    -19.59337064
      8.98000000	    -41.02349758	    -15.73981018	     11.38022197	   -135.57992981	    790.34627377	      0.78274616	      8.34776955	    -45.00000000	     32.12669201	    -45.00000000	    -45.00000000	  -4411.93486234	   -833.89355315	    151.53806095	    -94.21638232	   2169.79988503	     20.71205310	     17.43640625	     10.26235295	     17.60579960	     39.93585267	    -38.82429268	    -45.00000000	    -45.00000000	    799.06008617	  -2092.34506672	     22.18465895	    -33.35484119	   1445.61598183	     23.69348130	     11.07437717	    -19.56941000
      8.99000000	    -41.02141512	    -15.75974504	     11.36360338	   -140.96659232	    790.97606177	      0.43960475	      8.46548858	    -45.00000000	     32.13090410	    -45.00000000	    -45.00000000	  -4412.47647331	   -833.82498013	    151.75640738	    -93.36971383	   2169.82050754	     21.06091010	     17.44591053	     10.26662615	     17.45598099	     39.88704788	    -38.48479776	    -45.00000000	    -45.00000000	    799.24562478	  -2092.40474404	     21.85568493	    -34.60985397	   1445.71580375	     23.83717494	     10.95267684	    -19.53280079
      9.00000000	    -41.10515898	    -15.54586701	     11.18063638	   -146.34439936	    791.73287566	      0.09356166	      8.49221677	    -45.00000000	     31.98907694	    -45.00000000	    -45.00000000	  -4412.94585061	   -833.80608879	    151.93442559	    -92.79073327	   2169.85152042	     21.43175771	     17.47571641	     10.31325093	     17.35660068	     39.88847877	    -38.36538779	    -45.00000000	    -45.00000000	    799.50725172	  -2092.44530170	     21.61374459	    -35.75436931	   1445.78641003	     23.99855970	     10.87809236	    -19.52204031
      9.01000000	    -41.19333636	    -15.24028246	     10.73201014	   -151.68646186	    792.61828212	     -0.25202768	      8.42749219	    -45.00000000	     32.00275255	    -45.00000000	    -45.00000000	  -4413.20834284	   -833.80213027	    152.02639730	    -92.30069267	   2169.85142147	     21.63607999	     17.52359417	     10.40478832	     17.16830162	     39.53842989	    -37.80039934	    -45.00000000	    -45.00000000	    799.33581381	  -2092.16296582	     21.56412941	    -35.09769120	   1445.90602748	     23.94797471	     11.36518092	    -19.73675569
      9.02000000	    -41.23026428	    -15.22361819	     10.84364904	   -156.98781954	    793.62929960	     -0.59498987	      8.53448232	    -45.00000000	     31.87562227	    -45.00000000	    -45.00000000	  -4413.78502950	   -833.78997824	    152.30147486	    -91.54745176	   2169.89126622	     22.07976444	     17.55482936	     10.34213607	     17.04341421	     39.57112748	    -37.77099237	    -45.00000000	    -45.00000000	    799.79471489	  -2092.34341679	     21.13546894	    -37.24694235	   1446.07266916	     24.45045241	     11.07047413	    -19.69489836
      9.03000000	    -41.25309262	    -15.04828914	     10.62835041	   -162.21400815	    794.76370700	     -0.93181438	      8.55031026	    -45.00000000	     31.89455742	    -45.00000000	    -45.00000000	  -4414.22825388	   -833.73614690	    152.42094944	    -90.69721246	   2169.97954201	     22.46803002	     17.63004245	     10.32710096	     17.01341298	     39.32955008	    -37.35848411	    -45.00000000	    -45.00000000	    799.74766607	  -2092.24240041	     20.92999799	    -37.56756652	   1446.13100310	     24.68924534	     11.28818661	    -19.81412278
      9.04000000	    -41.29741457	    -14.86108167	     10.37824291	   -167.35886996	    796.01654302	     -1.26141410	      8.61357464	    -45.00000000	     31.91708919	    -45.00000000	    -45.00000000	  -4414.62811674	   -833.72559269	    152.51547207	    -89.95058832	   2169.99988830	     22.82961157	     17.69645215	     10.35134678	     16.95220921	     39.25338666	    -36.91770727	    -45.00000000	    -45.00000000	    799.78841703	  -2092.13451508	     20.77469642	    -37.94344262	   1446.29058880	     24.98227706	     11.33330102	    -19.92171298
      9.05000000	    -41.38373463	    -14.62754771	     10.09119916	   -172.40148200	    797.38009911	     -1.58286152	      8.73073076	    -45.00000000	     31.87155352	    -45.00000000	    -45.00000000	  -4414.97636542	   -833.69283802	    152.61694554	    -89.27187735	   2170.08616317	     23.19094990	     17.76798491	     10.29952801	     16.82101173	     39.18866132	    -36.59132237	    -45.00000000	    -45.00000000	    799.90883942	  -2092.06782659	     20.64801591	    -38.42649238	   1446.41655575	     25.36463103	     11.39465950	    -20.03816588
      9.06000000	    -41.43559382	    -14.44533171	      9.92603362	   -177.32541006	    798.84711422	     -1.89639757	      8.80218637	    -45.00000000	     31.75661712	    -45.00000000	    -45.00000000	  -4415.27512816	   -833.56949401	    152.83423121	    -88.70998676	   2170.12652238	     23.53769050	     17.80835208	     10.15025338	     16.61177869	     39.29076794	    -36.29451116	    -45.00000000	    -45.00000000	    800.05927984	  -2092.02529531	     20.47378530	    -38.95883692	   1446.54977790	     25.79907346	     11.45749061	    -20.17500576
      9.07000000	    -41.47803616	    -14.25220222	      9.82286280	   -182.11010774	    800.40871584	     -2.20260179	      8.76757879	    -45.00000000	     31.80393701	    -45.00000000	    -45.00000000	  -4415.82226809	   -833.59602238	    152.92065051	    -88.14227674	   2170.25045454	     23.95944599	     17.93478559	     10.28433872	     16.59275097	     39.02481861	    -36.13827549	    -45.00000000	    -45.00000000	    800.32331752	  -2092.03926751	     20.21992297	    -40.33974171	   1446.77217814	     26.31910197	     11.22831464	    -20.23829080
      9.08000000	    -41.56862791	    -14.00562163	      9.64746512	   -186.74012084	    802.05871666	     -2.50245520	      8.68411486	    -45.00000000	     31.60934049	    -45.00000000	    -45.00000000	  -4416.20924642	   -833.60776632	    152.94622867	    -87.74842299	   2170.20566878	     24.35194155	     18.00551212	     10.36720896	     16.39633761	     38.93139500	    -36.09124917	    -45.00000000	    -45.00000000	    800.77017157	  -2092.15634956	     20.04979905	    -41.77931307	   1446.97197236	     26.80858453	     10.92465276	    -20.27369403
      9.09000000	    -41.58275103	    -13.86749300	      9.49499940	   -191.20045849	    803.79191048	     -2.79660969	      8.77909557	    -45.00000000	     31.66807633	    -45.00000000	    -45.00000000	  -4416.51538628	   -833.50963017	    153.09673855	    -87.20064212	   2170.30662188	     24.70468430	     18.04774398	     10.20057703	     16.32755554	     38.85732548	    -35.72976221	    -45.00000000	    -45.00000000	    800.81815629	  -2092.04685363	     19.85493582	    -42.00897221	   1447.09359101	     27.15688302	     11.07291894	    -20.44708629
      9.10000000	    -41.61258949	    -13.63352652	      9.31233426	   -195.47917989	    805.60395396	     -3.08504404	      8.94287286	    -45.00000000	     31.66925147	    -45.00000000	    -45.00000000	  -4416.83458960	   -833.43375972	    153.19469827	    -86.74446266	   2170.40777774	     25.00317451	     18.06121202	      9.96706950	     16.20846922	     38.87895008	    -35.44083217	    -45.00000000	    -45.00000000	    800.78961982	  -2091.89048563	     19.63797712	    -42.07016157	   1447.23086777	     27.54172265	     11.32457411	    -20.67241562
